<?xml version="1.0" encoding="UTF-8"?>
<svg width="280px" height="145px" viewBox="0 0 280 145" version="1.1" xmlns="http://www.w3.org/2000/svg" xmlns:xlink="http://www.w3.org/1999/xlink">
    <!-- Generator: Sketch 59.1 (86144) - https://sketch.com -->
    <title>Icon</title>
    <desc>Created with Sketch.</desc>
    <g id="UI-Screens" stroke="none" stroke-width="1" fill="none" fill-rule="evenodd">
        <g id="Securedge-Home" transform="translate(-1117.000000, -1255.000000)">
            <g id="Feature" transform="translate(0.000000, 48.000000)">
                <g id="3" transform="translate(1048.000000, 1142.000000)">
                    <g id="Icon" transform="translate(69.000000, 64.363014)">
                        <g id="Group-2" transform="translate(93.286713, 0.645895)">
                            <path d="M64.4233197,65.6555944 L60.0643998,65.6555944 C60.0643998,51.4235985 48.4909701,39.8515822 34.2572358,39.8368455 L34.2572358,35.4895105 C50.8933503,35.4895105 64.4233197,49.0178276 64.4233197,65.6555944 Z" id="Path" fill="#28CC8B"></path>
                            <path d="M33.3699981,43.4746503 L33.3699981,47.9043419 C43.6350386,47.9043419 51.9965036,56.2644462 51.9965036,66.5428322 L56.4381799,66.5278163 C56.4381799,53.8130999 46.0867838,43.4746503 33.3699981,43.4746503 Z" id="Path" fill="#28CC8B"></path>
                            <path d="M33.3699981,51.4597902 L33.3699981,55.8775269 C39.2536927,55.8775269 44.0271858,60.6649644 44.0271858,66.5428322 L48.45304,66.5278948 C48.45304,58.2264334 41.6759508,51.4597902 33.3699981,51.4597902 Z" id="Path" fill="#28CC8B"></path>
                            <path d="M61.7813228,10.6468531 L65.0831391,13.9860992 L57.8961733,21.217995 C71.1744852,25.9991026 80.7246989,38.7499777 80.7246989,53.7332912 C80.7246989,72.7937225 65.3149767,88.3078519 46.3865579,88.3078519 C46.1210664,88.3078519 45.8742716,88.2927933 45.5975622,88.2626761 L45.5975622,81.8213571 L33.3699981,94.1468266 L45.6125194,106.468531 L45.6125194,99.5415724 C45.8742716,99.5716897 46.1210664,99.5867483 46.3865579,99.5867483 C71.4960664,99.5867483 91.9276904,79.012927 91.9276904,53.7332912 C91.9164724,33.9124003 79.3224553,17.0279377 61.7813228,10.6468531 Z" id="Path" fill="#55697C"></path>
                            <path d="M35.2916667,85.6183394 C21.6356838,81.0537869 11.7451923,68.0800548 11.7451923,52.7995465 C11.7451923,33.7158726 27.1399573,18.182825 46.0721154,18.182825 C46.3338675,18.182825 46.5956197,18.1979019 46.8611111,18.2280559 L46.8611111,24.6772295 L59.0998932,12.3367301 L46.8461538,0 L46.8461538,6.93540587 C46.5956197,6.90525193 46.3338675,6.89017497 46.0721154,6.89017497 C20.9626068,6.89017497 0.542200855,27.4890843 0.542200855,52.7995465 C0.542200855,72.5277608 12.9866453,89.3423508 30.3707265,95.8216783 L27.7681624,93.2020549 L35.2916667,85.6183394 Z" id="Path" fill="#55697C"></path>
                        </g>
                        <line x1="0.513482517" y1="144.087601" x2="40.1603357" y2="144.087601" id="Stroke-121" stroke="#55697C" stroke-width="1.5"></line>
                        <line x1="64.8951049" y1="143.617923" x2="279.353147" y2="143.11093" id="Stroke-121-Copy" stroke="#55697C" stroke-width="1.5"></line>
                    </g>
                </g>
            </g>
        </g>
    </g>
</svg>