<?xml version="1.0" encoding="UTF-8"?>
<svg width="208px" height="147px" viewBox="0 0 208 147" version="1.1" xmlns="http://www.w3.org/2000/svg" xmlns:xlink="http://www.w3.org/1999/xlink">
    <!-- Generator: Sketch 59.1 (86144) - https://sketch.com -->
    <title>Icon</title>
    <desc>Created with Sketch.</desc>
    <g id="UI-Screens" stroke="none" stroke-width="1" fill="none" fill-rule="evenodd">
        <g id="Securedge-Home" transform="translate(-228.000000, -1251.000000)">
            <g id="Feature" transform="translate(0.000000, 48.000000)">
                <g id="1" transform="translate(140.000000, 1142.000000)">
                    <g id="Icon" transform="translate(89.000000, 62.000000)">
                        <line x1="104.296744" y1="53.1579978" x2="112.543953" y2="1.40768716" id="Stroke-9" stroke="#008DFF" stroke-width="0.793" opacity="0.15"></line>
                        <polyline id="Stroke-11" stroke="#008DFF" stroke-width="0.793" opacity="0.15" points="76.1969302 4.27163348 43.503907 49.3521289 36.6764651 27.873744"></polyline>
                        <line x1="76.1969302" y1="4.27163348" x2="104.296465" y2="53.1582056" id="Stroke-13" stroke="#008DFF" stroke-width="0.793" opacity="0.15"></line>
                        <line x1="112.544163" y1="1.40803361" x2="158.114163" y2="9.15391606" id="Stroke-15" stroke="#008DFF" stroke-width="0.793" opacity="0.15"></line>
                        <line x1="112.544163" y1="1.40803361" x2="184.278349" y2="40.10973" id="Stroke-17" stroke="#008DFF" stroke-width="0.793" opacity="0.15"></line>
                        <polyline id="Stroke-19" stroke="#008DFF" stroke-width="0.793" opacity="0.149855841" points="158.114442 9.15370819 184.278628 40.110215 156.42886 78.8860513 112.544442 1.40782574"></polyline>
                        <line x1="114.966907" y1="88.0017195" x2="104.296674" y2="53.1580671" id="Stroke-21" stroke="#008DFF" stroke-width="0.793" opacity="0.15"></line>
                        <line x1="114.966907" y1="88.0017195" x2="36.6759767" y2="27.8736054" id="Stroke-23" stroke="#008DFF" stroke-width="0.793" opacity="0.15"></line>
                        <line x1="36.676186" y1="27.8733976" x2="104.296884" y2="53.1578592" id="Stroke-25" stroke="#008DFF" stroke-width="0.793" opacity="0.15"></line>
                        <path d="M113.686047,1.40803361 C113.686047,2.03441144 113.175349,2.54230408 112.543953,2.54230408 C111.913953,2.54230408 111.403256,2.03441144 111.403256,1.40803361 C111.403256,0.782348678 111.913953,0.274456037 112.543953,0.274456037 C113.175349,0.274456037 113.686047,0.782348678 113.686047,1.40803361" id="Fill-27" fill="#008DFF"></path>
                        <path d="M113.686047,1.40803361 C113.686047,2.03441144 113.175349,2.54230408 112.543953,2.54230408 C111.913953,2.54230408 111.403256,2.03441144 111.403256,1.40803361 C111.403256,0.782348678 111.913953,0.274456037 112.543953,0.274456037 C113.175349,0.274456037 113.686047,0.782348678 113.686047,1.40803361 Z" id="Stroke-29" stroke="#FFFFFF" stroke-width="0.793"></path>
                        <path d="M185.419814,40.1100765 C185.419814,40.7364543 184.909116,41.2443469 184.278419,41.2443469 C183.647721,41.2443469 183.137023,40.7364543 183.137023,40.1100765 C183.137023,39.4843915 183.647721,38.975806 184.278419,38.975806 C184.909116,38.975806 185.419814,39.4843915 185.419814,40.1100765" id="Fill-31" fill="#008DFF"></path>
                        <path d="M185.419814,40.1100765 C185.419814,40.7364543 184.909116,41.2443469 184.278419,41.2443469 C183.647721,41.2443469 183.137023,40.7364543 183.137023,40.1100765 C183.137023,39.4843915 183.647721,38.975806 184.278419,38.975806 C184.909116,38.975806 185.419814,39.4843915 185.419814,40.1100765 Z" id="Stroke-33" stroke="#FFFFFF" stroke-width="0.793"></path>
                        <path d="M157.570744,78.8858434 C157.570744,79.5122212 157.060047,80.0201139 156.428651,80.0201139 C155.798651,80.0201139 155.287256,79.5122212 155.287256,78.8858434 C155.287256,78.2601585 155.798651,77.751573 156.428651,77.751573 C157.060047,77.751573 157.570744,78.2601585 157.570744,78.8858434" id="Fill-35" fill="#008DFF"></path>
                        <path d="M157.570744,78.8858434 C157.570744,79.5122212 157.060047,80.0201139 156.428651,80.0201139 C155.798651,80.0201139 155.287256,79.5122212 155.287256,78.8858434 C155.287256,78.2601585 155.798651,77.751573 156.428651,77.751573 C157.060047,77.751573 157.570744,78.2601585 157.570744,78.8858434 Z" id="Stroke-37" stroke="#DDE1E5" stroke-width="0.793"></path>
                        <path d="M116.108163,88.0017195 C116.108163,88.6274044 115.597465,89.1352971 114.966767,89.1352971 C114.33607,89.1352971 113.825372,88.6274044 113.825372,88.0017195 C113.825372,87.3753417 114.33607,86.867449 114.966767,86.867449 C115.597465,86.867449 116.108163,87.3753417 116.108163,88.0017195" id="Fill-39" fill="#008DFF"></path>
                        <path d="M116.108163,88.0017195 C116.108163,88.6274044 115.597465,89.1352971 114.966767,89.1352971 C114.33607,89.1352971 113.825372,88.6274044 113.825372,88.0017195 C113.825372,87.3753417 114.33607,86.867449 114.966767,86.867449 C115.597465,86.867449 116.108163,87.3753417 116.108163,88.0017195 Z" id="Stroke-41" stroke="#DDE1E5" stroke-width="0.793"></path>
                        <path d="M37.8180698,27.8733976 C37.8180698,28.4997754 37.3066744,29.007668 36.6759767,29.007668 C36.0452791,29.007668 35.5345814,28.4997754 35.5345814,27.8733976 C35.5345814,27.2477126 36.0452791,26.73982 36.6759767,26.73982 C37.3066744,26.73982 37.8180698,27.2477126 37.8180698,27.8733976" id="Fill-43" fill="#008DFF"></path>
                        <path d="M37.8180698,27.8733976 C37.8180698,28.4997754 37.3066744,29.007668 36.6759767,29.007668 C36.0452791,29.007668 35.5345814,28.4997754 35.5345814,27.8733976 C35.5345814,27.2477126 36.0452791,26.73982 36.6759767,26.73982 C37.3066744,26.73982 37.8180698,27.2477126 37.8180698,27.8733976 Z" id="Stroke-45" stroke="#FFFFFF" stroke-width="0.793"></path>
                        <path d="M174.490674,41.0445158 C174.490674,35.6759589 178.872767,31.3238802 184.278349,31.3238802 C189.68393,31.3238802 194.066721,35.6759589 194.066721,41.0445158 C194.066721,46.4130726 189.68393,50.7651513 184.278349,50.7651513 C178.872767,50.7651513 174.490674,46.4130726 174.490674,41.0445158" id="Fill-47" fill="#F6F8F9"></path>
                        <path d="M174.490674,41.0445158 C174.490674,35.6759589 178.872767,31.3238802 184.278349,31.3238802 C189.68393,31.3238802 194.066721,35.6759589 194.066721,41.0445158 C194.066721,46.4130726 189.68393,50.7651513 184.278349,50.7651513 C178.872767,50.7651513 174.490674,46.4130726 174.490674,41.0445158 Z" id="Stroke-49" stroke="#DAE1E9" stroke-width="0.521"></path>
                        <path d="M190.190442,39.7257271 L189.260442,40.5973901 C189.090209,40.7567561 188.831372,40.7685354 188.640907,40.6334207 C185.746953,38.5713627 182.764395,38.5484971 179.813233,40.5724458 C179.616488,40.7075605 179.350674,40.6867737 179.184628,40.5149355 L178.315326,39.6169425 C178.121372,39.4160027 178.138814,39.0931133 178.353698,38.915039 C181.363465,36.4192283 186.13486,35.8766908 190.15486,38.9954149 C190.388581,39.1769536 190.406721,39.5234016 190.190442,39.7257271" id="Fill-51" fill="#28CC8B"></path>
                        <path d="M186.240767,43.0562002 C184.854488,42.3619186 183.48007,42.3695405 182.121,43.0617434 C181.936116,43.1559772 181.710767,43.1164822 181.564256,42.9702811 L180.632163,42.0424936 C180.427047,41.8373965 180.442395,41.4937201 180.676814,41.321882 C182.522163,39.9735067 185.517977,39.9631133 187.650767,41.2990164 C187.911,41.4618469 187.942395,41.8276959 187.725419,42.0431865 L186.792628,42.964738 C186.646814,43.1081674 186.424256,43.1483554 186.240767,43.0562002" id="Fill-53" fill="#28CC8B"></path>
                        <path d="M185.620116,45.2221926 C185.613837,46.0017004 184.97686,46.6301569 184.192674,46.6315427 C183.407093,46.6315427 182.764535,46.0086293 182.747091,45.2284286 C182.745698,44.4406061 183.387558,43.8003703 184.180814,43.7982894 C184.97407,43.7969059 185.618721,44.43437 185.620116,45.2221926" id="Fill-55" fill="#28CC8B"></path>
                        <path d="M110.567651,87.1823009 C110.567651,85.2678297 112.130442,83.7157431 114.058116,83.7157431 C115.986488,83.7157431 117.548581,85.2678297 117.548581,87.1823009 C117.548581,89.097465 115.986488,90.6495516 114.058116,90.6495516 C112.130442,90.6495516 110.567651,89.097465 110.567651,87.1823009" id="Fill-57" fill="#F6F8F9"></path>
                        <path d="M110.567651,87.1823009 C110.567651,85.2678297 112.130442,83.7157431 114.058116,83.7157431 C115.986488,83.7157431 117.548581,85.2678297 117.548581,87.1823009 C117.548581,89.097465 115.986488,90.6495516 114.058116,90.6495516 C112.130442,90.6495516 110.567651,89.097465 110.567651,87.1823009 Z" id="Stroke-59" stroke="#DAE1E9" stroke-width="0.186"></path>
                        <path d="M116.166767,86.7120325 L115.834674,87.0231427 C115.774674,87.0799602 115.681884,87.0841176 115.614209,87.0356148 C114.582349,86.3004524 113.518395,86.2928305 112.465605,87.0141351 C112.395837,87.0626378 112.300953,87.0550159 112.241651,86.9933482 L111.931884,86.6732303 C111.862814,86.6018621 111.869093,86.4868414 111.94514,86.4230949 C113.01886,85.5334167 114.720488,85.3400988 116.153512,86.4521966 C116.237233,86.5166359 116.243512,86.6399713 116.166767,86.7120325" id="Fill-61" fill="#28CC8B"></path>
                        <path d="M114.757744,87.9002795 C114.263791,87.6529157 113.774023,87.6549944 113.28914,87.9023582 C113.22286,87.9356172 113.142628,87.9217593 113.089605,87.8697921 L112.758209,87.5385879 C112.684256,87.465141 112.690535,87.3424984 112.773558,87.2815236 C113.432163,86.8006539 114.500302,86.7964965 115.260767,87.2739017 C115.353558,87.3314121 115.364721,87.4616765 115.287279,87.5392808 L114.954488,87.8670205 C114.90286,87.9182948 114.823326,87.9328457 114.757744,87.9002795" id="Fill-63" fill="#28CC8B"></path>
                        <path d="M114.537,88.6723041 C114.534209,88.9501553 114.307465,89.1746536 114.027698,89.1753464 C113.747233,89.1753464 113.518395,88.9529269 113.512115,88.6750757 C113.511419,88.39376 113.740256,88.1657972 114.023512,88.1651028 C114.30607,88.1644114 114.536302,88.3916813 114.537,88.6723041" id="Fill-65" fill="#28CC8B"></path>
                        <path d="M28.9846744,25.386733 C28.9846744,21.7940682 31.917,18.881827 35.5344419,18.881827 C39.151186,18.881827 42.0835116,21.7940682 42.0835116,25.386733 C42.0835116,28.9793979 39.151186,31.8916391 35.5344419,31.8916391 C31.917,31.8916391 28.9846744,28.9793979 28.9846744,25.386733" id="Fill-67" fill="#F6F8F9"></path>
                        <path d="M28.9846744,25.386733 C28.9846744,21.7940682 31.917,18.881827 35.5344419,18.881827 C39.151186,18.881827 42.0835116,21.7940682 42.0835116,25.386733 C42.0835116,28.9793979 39.151186,31.8916391 35.5344419,31.8916391 C31.917,31.8916391 28.9846744,28.9793979 28.9846744,25.386733 Z" id="Stroke-69" stroke="#DAE1E9" stroke-width="0.349"></path>
                        <path d="M39.4900465,24.5043302 L38.8677209,25.0870556 C38.754,25.1937615 38.5809767,25.2020763 38.454,25.1113069 C36.5165581,23.7317514 34.521907,23.7165076 32.5467907,25.0704261 C32.4142326,25.1605025 32.2370233,25.1473375 32.1253953,25.0323168 L31.5442326,24.4315761 C31.4144651,24.2964615 31.4256279,24.0809709 31.5693488,23.9617928 C33.5835349,22.2919138 36.776093,21.9288364 39.4663256,24.0158386 C39.6226047,24.1370954 39.6344651,24.3692155 39.4900465,24.5043302" id="Fill-71" fill="#28CC8B"></path>
                        <path d="M36.847186,26.7325446 C35.9199767,26.2683044 35.0004419,26.2731547 34.0906744,26.736702 C33.967186,26.7997555 33.8157907,26.7734255 33.7181163,26.6750342 L33.0943953,26.0541996 C32.9576512,25.9170062 32.9674186,25.6869648 33.125093,25.5719441 C34.3592791,24.6697937 36.3643953,24.6628648 37.7911395,25.5567004 C37.9648605,25.665485 37.9864884,25.9100773 37.8406744,26.0541996 L37.2162558,26.6715698 C37.1192791,26.7678823 36.9699767,26.7942123 36.847186,26.7325446" id="Fill-73" fill="#28CC8B"></path>
                        <path d="M36.4322093,28.1819441 C36.4280233,28.7036946 36.0017442,29.1235895 35.477093,29.1249753 C34.9510465,29.1249753 34.5219767,28.7085449 34.5094178,28.1861015 C34.5087209,27.6588077 34.9377907,27.2305981 35.4687209,27.2292115 C35.9996512,27.2285194 36.430814,27.6546504 36.4322093,28.1819441" id="Fill-75" fill="#28CC8B"></path>
                        <path d="M151.263698,90.3139129 C154.783465,93.8109581 154.783465,99.4795389 151.263698,102.975891 C147.745326,106.471551 142.034163,106.471551 138.515791,102.975891 L114.405558,76.9673535 L125.033233,66.41455 L151.263698,90.3139129 Z" id="Fill-77" fill="#DAE1E9"></path>
                        <polygon id="Fill-79" fill="#495D85" points="112.879395 61.5763356 118.185907 66.4141343 107.55893 76.9676306 102.680791 71.7057797"></polygon>
                        <path d="M153.937256,28.4742768 L145.934233,36.4855384 L140.83493,36.4855384 L135.853535,31.3594951 L135.853535,26.2944266 L143.738651,18.3469114 C142.11307,17.8022953 140.368884,17.5064288 138.557721,17.5064288 C127.448651,17.5064288 119.64586,28.3564845 123.178186,38.7679372 L107.859349,53.9832367 L107.846791,53.9714575 L83.931907,30.1663284 L83.931907,25.1040315 L71.1846977,17.5064288 L66.0846977,22.5701115 L73.7346977,35.230704 L78.8326047,35.2327827 L102.748186,59.0358331 L102.759349,59.0476123 L87.4928372,74.2088659 C77.029814,70.7076633 66.0846977,78.4292944 66.0846977,89.4830615 C66.0846977,91.2825119 66.3826047,93.0140586 66.9295814,94.6285059 L74.9333023,86.6186301 L80.0333023,86.6186301 L85.194,91.7446735 L85.194,96.8090491 L77.128186,104.75795 C78.7544651,105.302566 80.4972558,105.59774 82.309814,105.59774 C93.4384186,105.59774 101.214698,94.7268971 97.6900465,84.3355384 C105.084,76.9915355 126.014233,56.2046607 133.374698,48.8953026 C135.002372,49.4406117 136.745163,49.7350924 138.557721,49.7350924 C147.518651,49.7350924 154.782837,42.5213539 154.782837,33.621107 C154.782837,31.8209637 154.485628,30.089417 153.937256,28.4742768" id="Fill-81" fill="#DAE1E9"></path>
                        <path d="M94.1436977,76.0276481 C93.1467209,76.0276481 92.340907,76.8293286 92.340907,77.818091 C92.340907,78.8082391 93.1467209,79.6085338 94.1436977,79.6085338 C95.1385814,79.6085338 95.947186,78.8082391 95.947186,77.818091 C95.947186,76.8293286 95.1385814,76.0276481 94.1436977,76.0276481" id="Fill-83" fill="#2D8CFF"></path>
                        <path d="M138.646326,47.9443724 C137.069581,47.9443724 135.518651,47.6935441 134.038884,47.1981236 C133.390047,46.9819401 132.67214,47.148928 132.187953,47.6291048 C123.150279,56.6055702 103.674698,75.9463715 96.504,83.0686477 C96.0191163,83.5502103 95.8509767,84.2625072 96.0700465,84.9075932 C97.5686512,89.3275757 96.8514419,94.0406531 94.101907,97.8425725 C91.3614419,101.63202 87.0937674,103.80702 82.3984186,103.80702 C81.8702791,103.80702 81.3463256,103.778611 80.8265581,103.723179 L86.5523721,98.0802357 C86.8942326,97.7448742 87.086093,97.28687 87.086093,96.8087719 L87.086093,91.7450892 C87.086093,91.2690698 86.8956279,90.8138372 86.5579535,90.4784756 L81.3958605,85.3517394 C81.058186,85.0163778 80.6005116,84.8272173 80.121907,84.8272173 L75.021907,84.8272173 C74.5405116,84.8272173 74.0800465,85.0191494 73.7409767,85.3565897 L68.059814,91.0438786 C68.0033023,90.5276712 67.9753953,90.0066136 67.9753953,89.4827843 C67.9753953,84.8189025 70.1646977,80.5825374 73.9809767,77.8587639 C77.8084186,75.1280615 82.556093,74.4157646 87.0065581,75.9054906 C87.6546977,76.122367 88.371907,75.9553791 88.8567907,75.4738165 C88.9558605,75.3761182 124.515628,40.0592179 124.540744,40.0342737 C125.025628,39.553404 125.193767,38.841107 124.974698,38.1974068 C123.475395,33.7767314 124.190512,29.0643469 126.938651,25.2665849 C129.681907,21.4729802 133.948884,19.2965945 138.645628,19.2965945 C139.189116,19.2965945 139.729116,19.326389 140.264233,19.3852851 L134.657721,25.0379293 C134.325628,25.372598 134.139349,25.8236731 134.139349,26.2941494 L134.139349,31.3592179 C134.139349,31.824151 134.320744,32.2689901 134.645163,32.602273 L139.62586,37.7290092 C139.965628,38.0789216 140.433767,38.275704 140.923535,38.275704 L146.022837,38.275704 C146.503535,38.275704 146.964,38.0851577 147.30307,37.7456387 L152.984233,32.0597356 C153.040047,32.5752501 153.068651,33.0970006 153.068651,33.6208299 C153.068651,41.5191494 146.598419,47.9443724 138.646326,47.9443724 L138.646326,47.9443724 Z M123.396558,66.4703281 L115.427023,74.3818127 L112.992837,71.7571233 L120.747488,64.0548933 L123.396558,66.4703281 Z M126.055395,68.8926919 L150.983302,91.6058171 C153.767721,94.4009589 153.759349,98.9248758 150.957488,101.710317 C148.147953,104.499223 143.601907,104.507537 140.783302,101.734568 L117.871674,77.0196671 L126.055395,68.8926919 Z M80.1972558,33.9672778 C79.8588837,33.6312233 79.4012093,33.4600781 78.9226047,33.4600781 L74.844,33.4579994 L68.4449302,22.8483785 L71.5530698,19.7615276 L82.2177209,26.117461 L82.2177209,30.16813 C82.2177209,30.6413778 82.408186,31.0973033 82.7444651,31.4326649 L105.399349,53.9815737 L102.849349,56.5134151 L80.1972558,33.9672778 Z M154.434,26.7313667 C153.825628,26.5907088 153.18586,26.7729404 152.746326,27.2136222 L145.272837,34.6955113 L141.689581,34.6955113 L137.74493,30.6365276 L137.74493,27.028619 L145.111674,19.6028544 C145.548419,19.1635585 145.72493,18.5316375 145.580512,17.9308968 C145.436791,17.330849 144.992372,16.8472077 144.403535,16.6497324 C142.552605,16.0295906 140.615163,15.7156933 138.646326,15.7156933 C132.774,15.7156933 127.440279,18.4353249 124.009814,23.1768111 C120.799814,27.6155018 119.810512,33.0554269 121.228186,38.2604603 L107.947953,51.4490395 L85.8233023,29.4253457 L85.8233023,25.1037544 C85.8233023,24.474605 85.4912093,23.8918796 84.9484186,23.5682972 L72.2012093,15.9713874 C71.4909767,15.548028 70.584,15.6588914 69.9986512,16.2409239 L64.9000465,21.3039137 C64.3153953,21.8852533 64.2037674,22.7860178 64.6286512,23.4913858 L72.2772558,36.1505925 C72.6030698,36.6910513 73.1891163,37.0201768 73.8226047,37.0208697 L78.1726047,37.0222555 L100.299349,59.0452565 L87.0707442,72.1839471 C81.8291163,70.7766757 76.3495814,71.7605878 71.8774884,74.951373 C67.1067907,78.3555702 64.3705116,83.651373 64.3705116,89.4841701 C64.3705116,91.4388292 64.6865581,93.3636939 65.3109767,95.2005607 C65.509814,95.7895221 66.0023721,96.2329755 66.6107442,96.3736333 C67.2205116,96.5135983 67.8588837,96.3306738 68.2984186,95.8906849 L75.7733023,88.4094887 L79.3746977,88.4094887 L83.479814,92.4857948 L83.479814,96.0639089 L75.9477209,103.486209 C75.504,103.923426 75.319814,104.558119 75.4621395,105.163017 C75.6030698,105.767222 76.0495814,106.255714 76.6426047,106.454575 C78.4921395,107.074024 80.4295814,107.387905 82.3984186,107.387905 C88.2707442,107.387905 93.6030698,104.669675 97.0314419,99.9316534 C100.242837,95.490884 101.234233,90.0495731 99.8179535,84.8438468 L110.44214,74.2917362 L112.875628,76.9164256 L111.758651,78.0257518 C111.054,78.7255766 111.054,79.8598471 111.758651,80.5582861 C112.462605,81.2567251 113.604,81.2567251 114.308651,80.5582861 L115.319581,79.55428 L138.156558,104.188805 C138.172605,104.207514 138.191442,104.224143 138.208186,104.241465 C142.433302,108.438335 149.279581,108.440414 153.507488,104.240773 C157.723535,100.05291 157.723535,93.2368939 153.507488,89.0476457 C153.488651,89.0303234 153.470512,89.013001 153.450977,88.9942928 L128.607488,66.3587719 L129.607256,65.3658522 C130.311209,64.6667203 130.311209,63.5331427 129.607256,62.8333179 C128.902605,62.134186 127.762605,62.134186 127.057953,62.8333179 L125.948651,63.9357152 L123.299581,61.5216661 L133.976093,50.9182813 C135.492837,51.3208538 137.059814,51.525258 138.646326,51.525258 C148.587488,51.525258 156.674233,43.4932096 156.674233,33.6208299 C156.674233,31.664785 156.358186,29.7413061 155.733767,27.9037464 C155.534233,27.3154779 155.042372,26.8713316 154.434,26.7313667 L154.434,26.7313667 Z" id="Fill-85" fill="#575C6B"></path>
                        <path d="M120.439326,49.083216 L97.8779302,71.4893883 C97.1746744,72.1885202 97.1746744,73.320712 97.8779302,74.0205368 C98.5825814,74.7196687 99.7239767,74.7196687 100.42793,74.0205368 L122.988628,51.6143644 C123.692581,50.9166183 123.692581,49.7823479 122.988628,49.083216 C122.284674,48.3833912 121.143279,48.3833912 120.439326,49.083216" id="Fill-87" fill="#FF8300"></path>
                        <path d="M108.674233,40.029562 C107.678651,40.029562 106.871442,40.8298566 106.871442,41.8193119 C106.871442,42.8080742 107.678651,43.6097547 108.674233,43.6097547 C109.671907,43.6097547 110.477023,42.8080742 110.477023,41.8193119 C110.477023,40.8298566 109.671907,40.029562 108.674233,40.029562" id="Fill-89" fill="#FF8300"></path>
                        <line x1="25.5147209" y1="144.43626" x2="0.523325581" y2="144.43626" id="Stroke-3" stroke="#575C6B" stroke-width="1.5" stroke-linecap="round"></line>
                        <line x1="198.669488" y1="144.552666" x2="205.549256" y2="144.552666" id="Stroke-5" stroke="#575C6B" stroke-width="1.5" stroke-linecap="round"></line>
                        <line x1="146.733628" y1="144.552666" x2="193.275488" y2="144.552666" id="Stroke-7" stroke="#575C6B" stroke-width="1.5" stroke-linecap="round"></line>
                        <line x1="64.9640233" y1="144.552666" x2="146.733558" y2="144.552666" id="Stroke-1" stroke="#575C6B" stroke-width="1.5" stroke-linecap="round"></line>
                    </g>
                </g>
            </g>
        </g>
    </g>
</svg>