<?xml version="1.0" standalone="no"?>
<!DOCTYPE svg PUBLIC "-//W3C//DTD SVG 20010904//EN"
 "http://www.w3.org/TR/2001/REC-SVG-20010904/DTD/svg10.dtd">
<svg version="1.0" xmlns="http://www.w3.org/2000/svg"
 width="512.000000pt" height="512.000000pt" viewBox="0 0 512.000000 512.000000"
 preserveAspectRatio="xMidYMid meet">
<metadata>
Created by potrace 1.16, written by Peter Selinger 2001-2019
</metadata>
<g transform="translate(0.000000,512.000000) scale(0.100000,-0.100000)"
fill="#FFFFFF" stroke="none">
<path d="M66 4791 c-46 -31 -66 -69 -66 -131 0 -62 20 -100 66 -131 27 -18 54
-19 449 -19 l420 0 268 -1208 c147 -664 267 -1211 267 -1217 0 -5 -23 -23 -51
-40 -67 -39 -132 -114 -171 -195 -27 -56 -32 -79 -36 -166 -3 -79 -1 -113 13
-155 46 -143 152 -251 292 -300 45 -15 85 -19 202 -20 l146 0 -52 -19 c-188
-67 -303 -231 -303 -430 0 -259 191 -450 450 -450 259 0 450 191 450 450 0
199 -115 363 -303 430 -51 18 -40 19 908 19 948 0 959 -1 908 -19 -188 -67
-303 -231 -303 -430 0 -259 191 -450 450 -450 259 0 450 191 450 450 0 200
-115 363 -304 430 l-51 19 130 0 c110 1 134 4 159 20 46 31 66 69 66 131 0 59
-19 98 -61 128 -22 16 -129 17 -1429 22 l-1405 5 -35 22 c-46 28 -70 71 -70
123 0 52 24 95 70 123 l35 22 1401 3 1402 2 41 38 41 37 305 1067 c206 720
305 1083 305 1115 0 32 -7 57 -22 80 -47 68 106 63 -1932 63 l-1846 0 -5 23
c-3 12 -27 121 -54 242 -27 121 -54 232 -59 246 -6 15 -28 40 -49 58 l-38 31
-510 0 c-483 0 -512 -1 -539 -19z"/>
</g>
</svg>
