<?xml version="1.0" encoding="UTF-8"?>
<svg width="428px" height="748px" viewBox="0 0 428 748" version="1.1" xmlns="http://www.w3.org/2000/svg" xmlns:xlink="http://www.w3.org/1999/xlink">
    <!-- Generator: Sketch 56.2 (81672) - https://sketch.com -->
    <title>Securedge Home Copy 4</title>
    <desc>Created with Sketch.</desc>
    <defs>
        <linearGradient x1="1.25594051%" y1="56.1341622%" x2="96.9640351%" y2="44.7304606%" id="linearGradient-1">
            <stop stop-color="#2D8CFF" offset="0%"></stop>
            <stop stop-color="#0073FF" offset="100%"></stop>
        </linearGradient>
        <linearGradient x1="0.45916509%" y1="56.1341622%" x2="97.731714%" y2="44.7304606%" id="linearGradient-2">
            <stop stop-color="#2D8CFF" offset="0%"></stop>
            <stop stop-color="#0073FF" offset="100%"></stop>
        </linearGradient>
        <linearGradient x1="0.312919162%" y1="56.1341622%" x2="97.8726194%" y2="44.7304606%" id="linearGradient-3">
            <stop stop-color="#2D8CFF" offset="0%"></stop>
            <stop stop-color="#0073FF" offset="100%"></stop>
        </linearGradient>
        <linearGradient x1="30.3486225%" y1="56.1341622%" x2="68.933753%" y2="44.7304606%" id="linearGradient-4">
            <stop stop-color="#2D8CFF" offset="0%"></stop>
            <stop stop-color="#0073FF" offset="100%"></stop>
        </linearGradient>
        <linearGradient x1="-1.33944887%" y1="56.1341622%" x2="99.4646466%" y2="44.7304606%" id="linearGradient-5">
            <stop stop-color="#2D8CFF" offset="0%"></stop>
            <stop stop-color="#0073FF" offset="100%"></stop>
        </linearGradient>
    </defs>
    <g id="Securedge-Home-Copy-4" stroke="none" stroke-width="1" fill="none" fill-rule="evenodd">
        <path d="M378.306907,721 C336.712456,720.996267 303.662052,701.999778 302.931409,701.580139 L302.931409,701.580886 C256.729435,677.046213 223.224243,656.859504 191.508381,631.598303 C192.932389,632.4107 194.348941,633.213389 195.765493,634.006372 C226.325747,657.850359 258.936274,677.367289 303.281819,700.920067 L303.102886,701.251597 L303.281819,700.920067 L303.289275,700.925294 L303.289275,700.927534 C303.29673,700.927534 303.416019,701.002203 303.669507,701.14258 C303.922996,701.282958 304.295773,701.48979 304.795294,701.753371 C305.779425,702.282026 307.240711,703.036181 309.119506,703.941913 C312.884553,705.753378 318.342008,708.170407 325.111637,710.587436 C338.64344,715.420748 357.401576,720.254059 378.306907,720.252565 C391.689599,720.252565 405.952045,718.275336 420.289046,713.053747 C425.321535,711.220628 430.637334,709.006698 436.1768,706.458252 C436.855254,706.420917 437.533708,706.379103 438.219617,706.333555 C432.038976,709.228464 426.119278,711.723149 420.542535,713.754887 C406.108611,719.010077 391.764155,721 378.306907,721 M438.033229,705.597321 C464.694236,693.090297 496.283354,673.09026 526.202431,650.647807 C547.532728,634.655244 568.013093,617.420192 585.272666,600.774277 C584.266168,602.084715 583.267126,603.383952 582.253173,604.683189 C565.739154,620.298674 546.563508,636.310651 526.649764,651.245904 C497.342041,673.224664 466.453743,692.864051 440.090958,705.447236 C439.397592,705.501745 438.711683,705.551773 438.033229,705.597321 M191.903524,630.965858 C190.539161,630.188556 189.174797,629.406774 187.788067,628.610058 C159.747785,605.825621 132.76619,578.749969 99.2237206,540.797313 C65.3010187,502.420538 47.7357692,469.879877 38.6623784,442.641446 C36.6717495,436.665703 35.0911753,430.948313 33.8311892,425.478077 C33.8759224,424.579064 33.9281112,423.667358 33.9877555,422.751919 C35.322297,428.966603 37.0743486,435.51431 39.3706546,442.404746 C48.4067677,469.5364 65.9123729,501.985966 99.782886,540.303006 C134.77173,579.883441 162.58089,607.604232 191.903524,630.965858 M585.839287,601.263358 C586.860696,599.925293 587.874649,598.590215 588.896058,597.241696 C599.952622,586.334825 609.5479,575.738576 616.981073,565.982351 C636.52204,540.335113 659.097412,507.933336 677.460404,476.722525 C695.823396,445.516942 709.966553,415.479178 712.643092,394.657038 C713.053147,391.420145 713.254446,387.983887 713.254446,384.383358 C713.254446,365.118062 707.558414,341.174019 699.364777,317.854207 C699.40951,317.219522 699.446788,316.592304 699.484066,315.967326 C708.013202,339.850888 714,364.519965 714,384.383358 C714,388.010768 713.7987,391.479134 713.38119,394.75336 C710.659919,415.793534 696.486939,445.849965 678.10158,477.101843 C659.723677,508.347747 637.133394,540.765205 617.57006,566.434844 C609.316779,577.2663 598.431692,589.111011 585.839287,601.263358 M33.2422016,422.814641 C29.3280437,404.518546 29,389.096452 29,376.341528 C29,373.805776 29.0149111,371.37456 29.0149111,369.047134 C29.0223666,352.046542 37.8049914,326.03716 51.9779708,297.141829 C62.0056706,276.688553 74.7397309,254.803128 88.9798102,233.694259 C88.0329567,235.550526 87.1010144,237.396338 86.1839831,239.229457 C73.3380896,258.712786 61.8491042,278.700877 52.6415137,297.471119 C38.4983565,326.305968 29.7530094,352.286229 29.760465,369.047134 C29.760465,371.3768 29.7455539,373.80727 29.7455539,376.341528 C29.7455539,388.468488 30.0363199,402.964688 33.4285901,420.042188 C33.3614902,420.971815 33.3018459,421.899201 33.2422016,422.814641 M698.731056,316.070369 C698.045147,314.152128 697.344326,312.238367 696.628594,310.333566 C686.988583,284.714701 674.70931,260.548892 664.159723,245.018529 C652.730382,228.177729 620.365887,189.909224 583.967947,151.830378 C577.474172,145.03253 570.846198,138.236176 564.188402,131.57124 C565.157622,132.187257 566.119387,132.801781 567.06624,133.408839 C572.941205,139.317381 578.771436,145.314032 584.512201,151.314416 C620.925053,189.421637 653.289547,227.678194 664.778532,244.598144 C675.372853,260.202429 687.667037,284.399599 697.32196,310.072225 C697.836392,311.43269 698.335913,312.796143 698.835434,314.163328 C698.805612,314.794279 698.768334,315.429711 698.731056,316.070369 M89.6209865,234.078804 C90.5231067,232.303926 91.4475935,230.514862 92.3720804,228.721318 C97.2032696,221.719625 102.191025,214.826948 107.298069,208.120197 C128.896765,179.728133 166.099904,141.911375 203.802564,107.801175 C241.520135,73.6909753 279.722317,43.3022684 303.371286,29.7670557 C304.355417,29.2047996 305.347004,28.6656909 306.346046,28.1474895 C306.875389,28.1586898 307.397277,28.1713835 307.92662,28.1855705 C306.510068,28.8867105 305.115882,29.6304118 303.736607,30.4166742 C280.192015,43.8876718 241.989834,74.2681651 204.302085,108.354471 C166.621792,142.441523 129.433564,180.247828 107.887057,208.573436 C101.602037,216.840019 95.4810401,225.392583 89.6209865,234.078804 M564.650645,130.980609 C563.696336,130.375046 562.734572,129.765001 561.757896,129.151224 C531.898463,99.4382697 501.606609,72.5970774 479.553125,59.6734021 C441.112366,37.1323858 393.739872,18.7422078 352.667309,18.7474347 C337.047955,18.7474347 322.353088,21.4019104 309.387906,27.4821905 C308.851107,27.4650167 308.306853,27.4485895 307.762598,27.4344025 C321.160202,20.8516013 336.444056,18 352.667309,18 C393.956083,18.0037334 441.410588,36.4476729 479.925902,59.0290104 C502.680206,72.3685909 534.008381,100.317121 564.650645,130.980609" id="Fill-48" fill="url(#linearGradient-1)" opacity="0.353887649"></path>
        <path d="M426.89846,706 C407.968489,706 394.779392,702.937317 394.287318,702.821645 C311.752945,686.517186 263.932217,671.500784 195.981154,633.329184 C194.683866,632.322469 193.408945,631.313515 192.119112,630.290382 C262.277056,670.194815 310.224531,685.450023 394.428975,702.08881 L394.361874,702.455228 L394.428975,702.08881 L394.436431,702.091049 L394.443887,702.092542 C394.443887,702.092542 394.64519,702.140303 395.047797,702.227616 C395.442948,702.313437 396.039402,702.435825 396.807337,702.585078 C398.350663,702.8806 400.609734,703.275376 403.465259,703.671644 C409.176309,704.463435 417.295544,705.252986 426.89846,705.252986 C426.905915,705.252986 426.905915,705.252986 426.913371,705.252986 C430.499553,705.252986 434.294494,705.142538 438.25346,704.879852 C437.634638,705.17015 437.015817,705.45821 436.396995,705.740299 C433.101585,705.921642 429.925466,706 426.89846,706 M438.439852,705.615672 C439.058673,705.324628 439.68495,705.029106 440.311227,704.729852 C461.664293,703.044779 487.296919,696.845532 509.962185,679.905999 C531.896794,663.514972 558.051318,635.456794 582.476124,604.0225 C583.683944,602.881457 584.884308,601.741159 586.062306,600.604593 C560.765185,633.630677 533.320829,663.366465 510.40207,680.503759 C486.901768,698.070904 460.262625,704.148509 438.439852,705.615672 M191.723961,630.922471 C179.556292,624.000836 166.717612,616.336666 152.917149,607.800854 C106.155127,578.879244 79.4041492,550.949424 63.1284009,526.196466 C46.8601082,501.445001 41.0670452,479.870398 36.2059422,463.726386 C34.0214281,456.458483 33,446.974912 33,435.871192 C33,431.563734 33.1491136,427.015232 33.4547964,422.256282 C33.6411884,423.135386 33.8424918,424.025683 34.0437951,424.918219 C33.8424918,428.718961 33.745568,432.37642 33.745568,435.871192 C33.745568,446.92715 34.766996,456.354006 36.9216874,463.510714 C41.7902461,479.671144 47.5460307,501.130822 63.754678,525.786019 C79.9633252,550.438977 106.617379,578.2882 153.304845,607.16578 C165.569437,614.748608 177.066095,621.641137 188.003577,627.935907 C189.24122,628.940383 190.478863,629.933666 191.723961,630.922471 M585.495674,600.115788 C616.086327,560.160608 643.538139,515.377821 655.914567,482.359201 C665.994646,455.492813 676.827748,422.81449 685.148286,391.157062 C692.357929,363.7056 697.673828,337.016077 698.956205,315.572071 C699.17242,316.166846 699.381179,316.758637 699.589938,317.354905 C698.128624,338.576523 692.894737,364.600375 685.864032,391.347361 C677.543493,423.035386 666.69548,455.733111 656.615401,482.620395 C644.58939,514.655434 618.509423,557.622551 589.119134,596.585195 C587.926226,597.759074 586.718406,598.935939 585.495674,600.115788 M34.2003644,422.193596 C34.0065167,421.283149 33.8201247,420.381657 33.6411884,419.48539 C36.4147012,381.868267 47.9635488,332.10265 64.7984731,287.12061 C70.0845499,272.995998 77.5476851,256.454972 86.3975766,238.774394 C87.5308399,237.054247 88.6790146,235.337831 89.8346449,233.626639 C79.7843889,253.350497 71.3072813,271.843014 65.4918513,287.381803 C48.284143,333.364589 36.6085489,384.39513 34.2003644,422.193596 M699.709228,315.469086 C699.493014,314.867594 699.276799,314.266102 699.060584,313.666103 C699.187331,311.060882 699.254432,308.538497 699.254432,306.105663 C699.254432,300.47955 698.904015,295.337765 698.150991,290.784785 C694.721379,270.087046 680.249905,244.174388 662.676868,220.260982 C645.096376,196.343844 624.414321,174.406554 608.615736,161.593136 C600.608337,155.096874 585.861002,144.884199 567.288905,133.013316 C566.483691,132.203616 565.678478,131.393169 564.873265,130.586453 C584.772473,143.227484 600.630704,154.159562 609.085444,161.013286 C624.958586,173.884913 645.663008,195.851307 663.273323,219.817699 C680.883638,243.787821 695.414757,269.741524 698.881648,290.661651 C699.649583,295.268362 700,300.449699 700,306.105663 C700,309.097451 699.903076,312.22506 699.709228,315.469086 M89.1934564,233.242311 C100.705026,210.655768 114.281818,186.466989 128.298495,163.246865 C154.579766,119.71557 182.404362,79.6006885 201.14794,59.8193669 C223.828117,35.8895425 261.069236,27.0037313 300.711084,27 C303.126724,27 305.54982,27.0335821 307.980372,27.0985074 C307.510664,27.3313429 307.0335,27.5686561 306.563792,27.8111931 C304.610404,27.7686559 302.657016,27.7470141 300.711084,27.7470141 C300.703628,27.7470141 300.696173,27.7470141 300.688717,27.7470141 C261.158704,27.7470141 224.126344,36.6387954 201.692205,60.3327992 C183.023183,80.0260611 155.198587,120.131987 128.939684,163.633432 C116.018991,185.028931 103.485994,207.246817 92.5857906,228.272167 C91.4450717,229.922165 90.319264,231.581118 89.1934564,233.242311 M564.411012,131.176751 C557.507053,126.792428 550.118475,122.20288 542.37948,117.506617 C541.753202,116.829752 541.11947,116.155872 540.478281,115.484231 C548.001062,120.02751 555.210704,124.481982 561.980461,128.758097 C562.79313,129.562574 563.598343,130.367797 564.411012,131.176751 M447.751995,65.2051819 C421.276877,52.2260917 396.665679,41.9492373 378.45891,37.5507347 C356.121694,32.1537257 331.83109,28.496267 308.144397,27.8492528 C308.629016,27.6104471 309.121091,27.376119 309.60571,27.1462685 C332.897252,27.9007453 356.703237,31.5261144 378.630391,36.8253623 C397.232311,41.3208798 422.365407,51.873107 449.347511,65.1574207 C448.818157,65.166376 448.288804,65.1827939 447.751995,65.2051819" id="Fill-49" fill="url(#linearGradient-2)" opacity="0.25"></path>
        <path d="M436.393109,706 C437.012623,705.718178 437.632137,705.430391 438.251651,705.140367 C438.930877,705.094888 439.617567,705.044935 440.311721,704.990509 C439.684743,705.289479 439.057765,705.584722 438.438251,705.875491 C437.751561,705.92097 437.072335,705.962722 436.393109,706 M195.708232,633.657365 C194.290067,632.865578 192.871903,632.064099 191.446275,631.252927 C190.199783,630.265057 188.960755,629.272714 187.721727,628.269188 C189.110036,629.064702 190.475952,629.845306 191.841868,630.621436 C193.133144,631.643602 194.409492,632.651601 195.708232,633.657365 M582.635706,604.378396 C583.650814,603.081118 584.650993,601.78384 585.658636,600.475378 C586.882735,599.296645 588.091907,598.120893 589.286151,596.948124 C588.26358,598.294609 587.248473,599.627674 586.225901,600.963721 C585.046586,602.099213 583.844878,603.238431 582.635706,604.378396 M33.5896578,425.443494 C33.3881292,424.551802 33.1866006,423.662346 33,422.784074 C33.0597122,421.870015 33.1194244,420.944027 33.1866006,420.015802 C33.3657371,420.911222 33.5523377,421.811861 33.7464023,422.721447 C33.6866901,423.635506 33.6344419,424.545837 33.5896578,425.443494 M699.880576,317.981902 C699.671583,317.386198 699.46259,316.794967 699.246134,316.200754 C699.283454,315.561062 699.320774,314.926589 699.35063,314.296589 C699.567087,314.89602 699.783543,315.496944 700,316.097867 C699.96268,316.721902 699.92536,317.348174 699.880576,317.981902 M86.0020255,239.475705 C86.9201003,237.64535 87.8531031,235.80232 88.801034,233.948853 C89.9281014,232.289232 91.0551689,230.631847 92.1971643,228.98341 C91.2716255,230.77425 90.3460867,232.560617 89.44294,234.332818 C88.2860164,236.042391 87.1365569,237.757184 86.0020255,239.475705 M567.431492,133.814645 C566.483561,133.208503 565.520702,132.594906 564.550379,131.979817 C563.736801,131.171628 562.930686,130.367166 562.117108,129.56345 C563.094895,130.176302 564.057754,130.785427 565.013149,131.390077 C565.819263,132.19603 566.625378,133.00571 567.431492,133.814645 M307.99699,28.7500355 C307.467044,28.7358698 306.944563,28.7231952 306.414617,28.7120118 C306.88485,28.4697041 307.362548,28.2326154 307.832781,28 C308.377655,28.0141657 308.922529,28.030568 309.459938,28.047716 C308.974777,28.2773491 308.482151,28.5114556 307.99699,28.7500355" id="Fill-50" fill="url(#linearGradient-3)"></path>
        <path d="M604.320533,461 C604.834926,460.176669 605.341863,459.357069 605.848801,458.534485 C615.674446,449.186725 623.412701,440.239061 627.721671,432.372999 C632.977422,422.781898 636.257607,409.201782 638.002069,394.324341 C638.427002,393.009847 638.81466,391.720733 639.165044,390.455504 C637.554771,406.919146 634.170217,422.145178 628.370253,432.732787 C623.703444,441.25199 615.137689,450.934158 604.320533,461 M640,351.453633 C639.679436,349.646484 639.329053,347.824406 638.941395,345.979935 C638.143713,334.065889 636.660175,323.167758 634.744249,314.730664 C631.367149,299.859941 619.22301,264.287995 604.223619,227.747906 C589.224227,191.210057 571.339764,153.666743 556.519292,134.855525 C551.464825,128.433839 545.96306,122.039024 540.125822,115.877848 C540.923503,116.35856 541.713729,116.836287 542.496501,117.314013 C547.677702,122.886989 552.56816,128.629408 557.108234,134.392727 C572.025621,153.341292 589.895174,190.891324 604.909475,227.465003 C619.931232,264.038681 632.067916,299.597938 635.467381,314.564953 C637.688961,324.347145 639.329053,337.371904 640,351.453633 M396.20025,77.8388937 C395.797681,77.7030403 395.395113,77.5679333 395,77.4335728 C413.67469,71.5538074 430.150164,67.2841288 441.765001,65.5777502 C443.792752,65.2791713 445.835413,65.0880808 447.878073,65 C448.355191,65.2328916 448.832309,65.4680225 449.309427,65.7024069 C446.819468,65.7524189 444.336964,65.9532132 441.869371,66.3159866 C430.530368,67.9805641 414.450006,72.1248395 396.20025,77.8388937" id="Fill-52" fill="url(#linearGradient-4)" opacity="0.15"></path>
        <path d="M339.736407,576 C338.61455,576 337.50765,575.988052 336.423188,575.961169 C312.587458,575.370495 292.812851,565.172209 279.006525,555.134472 C265.192721,545.094496 257.33224,535.206856 257.317282,535.190427 L257.317282,535.189681 L257.317282,535.190427 L257.317282,535.189681 C207.940597,477.804626 187.133881,444.580481 158.713493,367.102033 C147.001302,335.171996 143.000005,309.936521 143.000005,289.640012 C142.992531,260.649907 151.167132,241.74533 156.61188,227.887997 C161.286286,215.994602 174.576557,200.242032 192.421569,183.944339 C210.259102,167.65262 232.666335,150.84266 255.567184,136.94127 C278.482992,123.032411 314.898484,106.824328 350.65582,93.3411137 C365.883164,87.6031309 380.983365,82.3594929 394.87196,78 C395.26835,78.134414 395.672218,78.2695747 396.076087,78.4054821 C381.933205,82.8202341 366.488967,88.1706566 350.925065,94.040813 C315.197646,107.509839 278.797112,123.714189 255.956095,137.580483 C233.10012,151.453497 210.722803,168.241801 192.922666,184.496183 C175.115049,200.743844 161.88461,216.485213 157.307432,228.162052 C151.862684,242.035814 143.747915,260.788802 143.747915,289.640012 C143.747915,309.837204 147.72677,334.983069 159.416524,366.845899 C187.829433,444.287757 208.538921,477.340151 257.900648,534.713258 L257.616444,534.957443 L257.900648,534.713258 L257.900648,534.719232 L257.908127,534.725952 C257.908127,534.725952 258.027792,534.875301 258.267121,535.162051 C258.506451,535.448801 258.857966,535.870711 259.336625,536.409861 C260.278985,537.484426 261.685047,539.025706 263.517414,540.878378 C267.189627,544.583723 272.574543,549.540611 279.44031,554.531103 C293.179324,564.51358 312.811829,574.631218 336.445625,575.213678 C337.522609,575.240561 338.61455,575.252509 339.736407,575.252509 C339.751365,575.252509 339.758844,575.252509 339.766323,575.252509 C387.864091,575.252509 474.045178,550.931796 514.439524,526.444559 C535.149012,513.895522 559.837355,497.463415 581.242395,480.707221 C590.426667,473.523541 599.005137,466.274895 606.401917,459.252512 C605.893342,460.075424 605.384766,460.895349 604.868712,461.719008 C597.935633,468.155944 590.067673,474.750442 581.706096,481.296402 C560.263661,498.075745 535.56036,514.520547 514.828435,527.083772 C474.224675,551.672566 388.051067,575.989546 339.736407,576 M638.659058,395.016826 C639.758478,385.670575 640.252095,375.813551 640.252095,366.107369 C640.252095,359.482254 640.020245,352.926587 639.601418,346.653188 C639.990328,348.498393 640.341844,350.321196 640.663443,352.129064 C640.880335,356.701379 641,361.387199 641,366.107369 C640.992521,374.480612 640.633527,382.966614 639.825789,391.14645 C639.474274,392.412182 639.085363,393.701809 638.659058,395.016826" id="Fill-53" fill="url(#linearGradient-5)"></path>
    </g>
</svg>