<svg xmlns="http://www.w3.org/2000/svg" width="427.164" height="512.004" viewBox="0 0 427.164 512.004"><g transform="translate(0 0)"><path d="M210.352,246.633c33.883,0,63.223-12.152,87.2-36.129s36.125-53.3,36.125-87.191S321.52,60.1,297.543,36.121,244.231,0,210.352,0s-63.219,12.152-87.191,36.125S87.032,89.434,87.032,123.313s12.156,63.223,36.133,87.2,53.313,36.125,87.188,36.125Zm0,0" fill="#fff"/><path d="M426.129,393.7a304.594,304.594,0,0,0-4.148-32.352,254.893,254.893,0,0,0-7.957-32.527,160.661,160.661,0,0,0-13.371-30.336,114.475,114.475,0,0,0-20.164-26.277,88.9,88.9,0,0,0-28.965-18.2,100.1,100.1,0,0,0-36.977-6.691c-5.227,0-10.281,2.145-20.043,8.5-6.008,3.918-13.035,8.449-20.879,13.461-6.707,4.273-15.793,8.277-27.016,11.9a104.905,104.905,0,0,1-66.086,0c-11.211-3.621-20.3-7.625-27-11.9-7.77-4.965-14.8-9.5-20.9-13.469-9.75-6.355-14.809-8.5-20.035-8.5a99.975,99.975,0,0,0-36.973,6.7,88.828,88.828,0,0,0-28.969,18.2A114.491,114.491,0,0,0,26.5,298.488a160.977,160.977,0,0,0-13.371,30.34,255.5,255.5,0,0,0-7.953,32.523,303.521,303.521,0,0,0-4.148,32.363C.344,403.512,0,413.679,0,423.949c0,26.727,8.5,48.363,25.25,64.32C41.8,504.015,63.691,512,90.316,512H336.847c26.625,0,48.512-7.984,65.063-23.734,16.758-15.945,25.254-37.586,25.254-64.324,0-10.316-.352-20.492-1.035-30.242Zm0,0" fill="#fff"/></g></svg>